<svg xmlns="http://www.w3.org/2000/svg" viewBox="0 0 512 180" role="img" aria-label="HerbTrust logo">
  <defs>
    <linearGradient id="g" x1="0" x2="0" y1="0" y2="1">
      <stop offset="0%" stop-color="#3f5d2a"/>
      <stop offset="100%" stop-color="#7b995d"/>
    </linearGradient>
  </defs>
  <rect width="100%" height="100%" fill="transparent"/>
  <!-- Stylized H made of leaves -->
  <g transform="translate(40,20)">
    <path d="M20 110 L20 20 L50 10 L50 110 Z" fill="url(#g)"/>
    <path d="M120 110 L120 20 L90 10 L90 110 Z" fill="#3b332b"/>
    <rect x="50" y="70" width="40" height="20" fill="#3b332b"/>
  </g>
  <!-- Dotted path -->
  <path d="M120,95 C200,120 260,90 320,110" fill="none" stroke="#e33" stroke-dasharray="6 8" stroke-width="5"/>
  <!-- Map pins -->
  <g fill="#e33">
    <path d="M115 100 a18 18 0 1 1 36 0 c0 16-18 36-18 36 s-18-20-18-36z"/>
    <circle cx="133" cy="100" r="8" fill="#fff"/>
    <path d="M330 115 a18 18 0 1 1 36 0 c0 16-18 36-18 36 s-18-20-18-36z"/>
    <circle cx="348" cy="115" r="8" fill="#fff"/>
  </g>
  <!-- Brand text -->
  <text x="160" y="150" font-family="'Segoe UI', Roboto, Helvetica, Arial, sans-serif" font-size="56" font-weight="700" fill="#3b332b">Herb<tspan fill="#3b332b">Trust</tspan></text>
</svg>


